<svg width="82" height="87" viewBox="0 0 82 87" fill="none" xmlns="http://www.w3.org/2000/svg">
<path d="M47.4804 36.4963C53.7278 39.8336 57.5042 40.651 64.9824 39.9864C62.4495 45.2964 60.4463 45.681 64.6085 60.4094C68.7706 75.1378 63.0686 80.3039 63.5085 86.4872C73.3483 80.7615 75.7663 75.3883 75.9952 62.9802C77.6616 66.5508 78.2209 68.8475 78.7318 73.3248C81.3705 63.4098 81.71 57.5274 81.1399 46.708C79.1489 22.2351 76.0716 10.695 59.461 2.48949C30.3651 -6.3393 25.3061 10.8761 23.0832 14.4331C23.0832 14.4331 14.5046 10.3229 9.69908 15.3638C4.89356 20.4047 -4.52136 47.7687 2.53416 63.8294L4.10747 57.4439C4.10747 57.4439 4.46832 70.3729 9.23355 76.364C12.7142 80.7401 21.0074 84.5112 21.0074 84.5112C17.7708 78.6384 15.5472 71.6566 16.2502 64.7037C16.7898 59.3664 22.7541 50.0378 23.755 46.6634C24.7559 43.289 27.4025 35.5727 27.0531 29.6231C33.4185 38.0506 39.5305 40.8759 53.4449 41.6852L47.4804 36.4963Z" fill="#CE5D17"/>
</svg>
