<svg width="45" height="45" viewBox="0 0 45 45" fill="none" xmlns="http://www.w3.org/2000/svg">
<path d="M22.5 0C10.074 0 0 10.074 0 22.5S10.074 45 22.5 45 45 34.926 45 22.5 34.926 0 22.5 0zm0 41.25C12.183 41.25 3.75 32.817 3.75 22.5S12.183 3.75 22.5 3.75 41.25 12.183 41.25 22.5 32.817 41.25 22.5 41.25z" fill="#006BFF"/>
<path d="M33.75 11.25h-3.75V7.5c0-1.035-.84-1.875-1.875-1.875S26.25 6.465 26.25 7.5v3.75h-7.5V7.5c0-1.035-.84-1.875-1.875-1.875S15 6.465 15 7.5v3.75h-3.75c-1.035 0-1.875.84-1.875 1.875v22.5c0 1.035.84 1.875 1.875 1.875h22.5c1.035 0 1.875-.84 1.875-1.875v-22.5c0-1.035-.84-1.875-1.875-1.875zM31.875 33.75H13.125V18.75h18.75v15z" fill="#006BFF"/>
<path d="M16.875 22.5h3.75v3.75h-3.75v-3.75zm7.5 0h3.75v3.75h-3.75v-3.75zm-7.5 7.5h3.75v3.75h-3.75V30zm7.5 0h3.75v3.75h-3.75V30z" fill="#006BFF"/>
</svg> 